# xmcd
#
# Track frame offsets: 
#        150
#        25363
#        50659
#        70382
#
# Disc length: 1191 seconds
#
# Revision: 1
# Processed by: cddbd v1.5.2PL0 Copyright (c) Steve Scherf et al.
# Submitted via: ExactAudioCopy v1.3
#
DISCID=3604a504
DTITLE=Acid Witch - Midnight Movies
DYEAR=2015
DGENRE=Metal
TTITLE0=I'm Back
TTITLE1=After Midnight
TTITLE2=Soldiers Of The Night
TTITLE3=Partytime
EXTD=
EXTT0=
EXTT1=
EXTT2=
EXTT3=
PLAYORDER=
